<?xml version="1.0" encoding="UTF-8"?>
<svg xmlns="http://www.w3.org/2000/svg" width="64" height="64" viewBox="0 0 64 64">
  <defs>
    <linearGradient id="bg" x1="0" y1="0" x2="1" y2="1">
      <stop offset="0" stop-color="#0f1216"/>
      <stop offset="1" stop-color="#171b21"/>
    </linearGradient>
    <linearGradient id="acc" x1="0" y1="0" x2="0" y2="1">
      <stop offset="0" stop-color="#60a5fa"/>
      <stop offset="1" stop-color="#3b82f6"/>
    </linearGradient>
  </defs>

  <!-- Background -->
  <rect x="2" y="2" width="60" height="60" rx="14" fill="url(#bg)"/>

  <!-- Map panels -->
  <path d="M14 18c0-1.1.9-2 2-2h11c.6 0 1.1.25 1.5.65.3.3.5.75.5 1.35v28c0 1.1-.9 2-2 2H16c-1.1 0-2-.9-2-2V18Z" fill="#111827" stroke="#374151" stroke-width="1.5"/>
  <path d="M27 16h10c.7 0 1.3.3 1.7.8.2.3.3.7.3 1.2v28c0 1.1-.9 2-2 2H27V16Z" fill="#0b1220" stroke="#374151" stroke-width="1.5"/>
  <path d="M39 18c0-1.1.9-2 2-2h7c1.1 0 2 .9 2 2v28c0 1.1-.9 2-2 2h-7c-1.1 0-2-.9-2-2V18Z" fill="#111827" stroke="#374151" stroke-width="1.5"/>

  <!-- Fold lines -->
  <path d="M27 16v32M39 18v30" stroke="#1f2937" stroke-width="2"/>

  <!-- Marker pin -->
  <path d="M34 30c0-3.3 2.7-6 6-6s6 2.7 6 6c0 5-6 14-6 14s-6-9-6-14Z" fill="url(#acc)"/>
  <circle cx="40" cy="30" r="2.2" fill="#e5e7eb"/>
</svg>
